<?xml version="1.0" encoding="UTF-8"?>
<svg id="Layer_1" xmlns="http://www.w3.org/2000/svg" xmlns:xlink="http://www.w3.org/1999/xlink" version="1.1" viewBox="0 0 300 247.54">
  <defs>
    <style>
      .st0 {
        fill: url(#linear-gradient2);
      }

      .st1 {
        fill: url(#linear-gradient1);
      }

      .st2 {
        fill: url(#linear-gradient3);
      }

      .st3 {
        fill: url(#linear-gradient4);
      }

      .st4 {
        fill: url(#linear-gradient);
      }

      .st5 {
        fill: #4f4e4e;
      }
    </style>
    <linearGradient id="linear-gradient" x1="35.21" y1="120.47" x2="235.95" y2="97.81" gradientUnits="userSpaceOnUse">
      <stop offset="0" stop-color="#cda988"/>
      <stop offset=".2" stop-color="#967453"/>
      <stop offset=".41" stop-color="#a18367"/>
      <stop offset=".59" stop-color="#876848"/>
      <stop offset=".64" stop-color="#806140"/>
      <stop offset=".73" stop-color="#8d6d4c"/>
      <stop offset=".91" stop-color="#af8d6c"/>
      <stop offset="1" stop-color="#c39f7f"/>
    </linearGradient>
    <linearGradient id="linear-gradient1" x1="35.95" y1="127.03" x2="236.69" y2="104.37" xlink:href="#linear-gradient"/>
    <linearGradient id="linear-gradient2" x1="36.74" y1="133.99" x2="237.47" y2="111.33" xlink:href="#linear-gradient"/>
    <linearGradient id="linear-gradient3" x1="38.7" y1="151.36" x2="239.43" y2="128.7" xlink:href="#linear-gradient"/>
    <linearGradient id="linear-gradient4" x1="34.59" y1="114.98" x2="235.33" y2="92.32" xlink:href="#linear-gradient"/>
  </defs>
  <g>
    <path class="st5" d="M65.13,201.1v-11.36h4.74c2.15,0,3.72,1,3.72,3.39s-1.57,3.37-3.72,3.37h-2.99v4.61h-1.75ZM69.79,194.98c1.32,0,1.99-.59,1.99-1.86s-.67-1.88-1.99-1.88h-2.91v3.73h2.91Z"/>
    <path class="st5" d="M78.23,201.1v-11.36h1.75v11.36h-1.75Z"/>
    <path class="st5" d="M85.41,201.1v-11.36h1.75v9.85h5.75v1.51h-7.5Z"/>
    <path class="st5" d="M96.39,201.1l4.23-11.36h1.89l4.26,11.36h-1.91l-.94-2.73h-4.75l-.94,2.73h-1.84ZM99.7,196.89h3.73l-1.86-5.53h-.03l-1.84,5.53Z"/>
    <path class="st5" d="M112.43,201.1v-9.85h-3.67v-1.51h9.11v1.51h-3.67v9.85h-1.76Z"/>
    <path class="st5" d="M122.41,201.1v-11.36h8.04v1.51h-6.29v3.23h5.51v1.51h-5.51v3.61h6.45v1.51h-8.2Z"/>
    <path class="st5" d="M134.68,197.27h1.81c.13,1.53,1.03,2.56,3.16,2.56,1.83,0,2.38-.79,2.38-1.83,0-1.45-1.11-1.65-3.18-2.18-1.78-.48-3.74-1.05-3.74-3.21,0-1.97,1.53-3.1,3.97-3.1,2.59,0,4.28,1.32,4.45,3.61h-1.81c-.19-1.37-.97-2.11-2.62-2.11-1.43,0-2.16.52-2.16,1.51,0,1.27,1.19,1.54,2.65,1.91,2.19.56,4.26,1.08,4.26,3.48,0,1.95-1.32,3.42-4.16,3.42s-4.9-1.49-5.02-4.05Z"/>
    <path class="st5" d="M154.4,197.27h1.81c.13,1.53,1.03,2.56,3.16,2.56,1.83,0,2.38-.79,2.38-1.83,0-1.45-1.11-1.65-3.18-2.18-1.78-.48-3.74-1.05-3.74-3.21,0-1.97,1.53-3.1,3.97-3.1,2.59,0,4.28,1.32,4.45,3.61h-1.81c-.19-1.37-.97-2.11-2.62-2.11-1.43,0-2.16.52-2.16,1.51,0,1.27,1.19,1.54,2.65,1.91,2.19.56,4.26,1.08,4.26,3.48,0,1.95-1.32,3.42-4.16,3.42s-4.9-1.49-5.02-4.05Z"/>
    <path class="st5" d="M170.66,201.1v-9.85h-3.67v-1.51h9.11v1.51h-3.67v9.85h-1.76Z"/>
    <path class="st5" d="M180.56,197.24v-7.5h1.75v7.5c0,1.76.89,2.57,2.69,2.57s2.69-.81,2.69-2.57v-7.5h1.76v7.5c0,2.45-1.32,4.08-4.45,4.08s-4.43-1.64-4.43-4.08Z"/>
    <path class="st5" d="M194.8,201.1v-11.36h4.32c3.15,0,5.05,2.03,5.05,5.69s-1.88,5.67-5.02,5.67h-4.35ZM199.04,199.59c2.64,0,3.32-1.97,3.32-4.16s-.68-4.18-3.32-4.18h-2.5v8.34h2.5Z"/>
    <path class="st5" d="M209.09,201.1v-11.36h1.75v11.36h-1.75Z"/>
    <path class="st5" d="M215.72,195.41c0-3.42,2.18-5.9,5.58-5.9s5.58,2.48,5.58,5.9-2.18,5.91-5.58,5.91-5.58-2.5-5.58-5.91ZM225.05,195.41c0-2.34-1.07-4.39-3.75-4.39s-3.75,2.05-3.75,4.39,1.07,4.4,3.75,4.4,3.75-2.07,3.75-4.4Z"/>
  </g>
  <g>
    <path class="st4" d="M115.49,137.59c-.84,7.24,2.2,13.35,8.37,15.45.53.17,1.09.27,1.2.03.04-.1-.11-.29-.29-.45-.24-.2-.77-.5-.77-.5-1.76-.95-3.26-2.24-4.25-3.85-3.6-6.53.2-15.8,4-21.42,2.07-2.95,4.14-5.61,6.31-8.32,1.28-1.59,4.07-4.95,2.5-4.72-1.56.23-4.16,2.24-5.68,3.24-13.89,9.74-27.85,18.61-42.74,26.68-6.97,3.71-14.65,7.66-22.23,9.15-.42.05-2,.23-2.59.24-1.56.03-2.26-.17-3.06-.71-.72-.49-1.02-1.64-1.14-2.31-2.77-25.66,27.9-58.88,49.74-79.61h0c.67-.64,1.88-1.93.28-1.87-.55.02-1.17.26-2.52,1.1-.84.52-1.86,1.25-2.52,1.74-20.52,15.35-40.54,35.49-49.85,57.96-2.93,7.62-6.88,23.01.08,29.29,13.26,11.43,47.87-14.17,59.69-22.15,1.16-.85,3.13-2.23,4.78-3.62,2.91-2.46,1.02,1.86.7,4.66Z"/>
    <path class="st1" d="M203.49,53.75c2.05-4.1,2.79-6.93,3.2-7.07.25-.08.38.79.28,1.95-.13,1.01-.31,2.02-.54,3.01-.39,1.76-.91,3.49-1.5,5.18-15.27,43.3-54.22,72.28-77.33,110.95-1.68,3.12-4.78,9.78-4.78,9.78,0,0-.12.32-.21.51-.1.21-.25.34-.38.28-.28-.12-.48-3.58,2.42-11.97,2.83-8.21,7.31-15.76,11.86-23.09,19.85-31.74,48.99-56.62,66.99-89.55Z"/>
    <path class="st0" d="M239.53,57.78c0-.26-.87-.14-1.95.29-.93.41-1.85.87-2.74,1.37-1.57.87-3.09,1.86-4.54,2.91-37.2,26.91-53.96,72.47-84.51,105.59-2.52,2.5-8.03,7.35-8.03,7.35,0,0-.27.2-.43.35-.18.16-.25.34-.16.45.2.23,3.57-.56,10.8-5.71,7.07-5.04,13.04-11.47,18.78-17.92,24.82-28.03,40.42-63.02,66.91-89.61,3.36-3.13,5.86-4.64,5.87-5.07Z"/>
    <path class="st2" d="M253.01,143.25s0,0,0,0c-15.02,9.33-25.4,5.41-20.53-13.82.55-2.18,2.1-6.4.7-5.56-.68.59-1.46,2.42-4.3,6.68-4.41,6.63-10.79,10.87-17.82,14.43-2.52,1.15-4.51,2.12-6.99,1.73-6.07-1.36-3.96-10.56-1.93-14.81,4.37-8.6,11.47-15.56,19.86-20.53.02-.01.03-.03.05-.04,1.67-1.02,2.59-2.11,2.27-2.59-.16-.23-.98-.04-1.77.22-15.14,5.48-30.01,19.03-29.25,35.18.13,4.99,4.19,9.63,9.21,10.27,9,.85,18.94-8.39,24.86-15.91-.02,1.34.07,2.69.32,4.05,2.41,10.46,12.14,9.17,20.52,4.75.01,0,.03-.01.04-.02.32-.17.64-.35.96-.53,2.09-1.25,4.26-3.18,4.35-3.5.1-.37-.54,0-.54,0Z"/>
    <path class="st3" d="M138.46,101.17c1.63-1.48,3.89-1.54,4.46,1.8.53,3.07-1.88,5.84-4.69,6.46,0,0-.3.07-.24.15.05.07.39.05.47.05.16-.01.32-.03.48-.05,4.31-.42,11.15-5.58,9.4-10.31-.34-.91-.97-1.75-1.83-2.21-4.16-2.21-7.52.98-9.02,3.96-.59,1.18-.59,1.57.97.16Z"/>
  </g>
</svg>
